<?xml version="1.0" encoding="UTF-8"?>
<!-- Generator: Adobe Illustrator 27.4.0, SVG Export Plug-In . SVG Version: 6.00 Build 0)  -->
<svg xmlns="http://www.w3.org/2000/svg" xmlns:xlink="http://www.w3.org/1999/xlink" version="1.1" id="Livello_1" x="0px" y="0px" viewBox="0 0 137.9 55.2" style="enable-background:new 0 0 137.9 55.2;" xml:space="preserve">
<style type="text/css">
	.st0{clip-path:url(#SVGID_00000076590256940994034860000014978277970841484703_);}
	.st1{fill-rule:evenodd;clip-rule:evenodd;fill:#FFED00;}
	.st2{fill-rule:evenodd;clip-rule:evenodd;fill:#1D1D1B;}
	.st3{fill:#1D1D1B;}
</style>
<g id="Raggruppa_3066" transform="translate(0 0)">
	<g>
		<defs>
			<rect id="SVGID_1_" width="137.9" height="55.2"></rect>
		</defs>
		<clipPath id="SVGID_00000151534928645719967820000014051475821836352930_">
			<use xlink:href="#SVGID_1_" style="overflow:visible;"></use>
		</clipPath>
		
			<g id="Raggruppa_3066-2" transform="translate(0 0)" style="clip-path:url(#SVGID_00000151534928645719967820000014051475821836352930_);">
			<path id="Tracciato_23307" class="st1" d="M26.7,18.7c0.1,0,0.2,0,0.4,0c1,0,2.1,0.1,3.1,0.2c0,0.1,0,0.3,0,0.4     C29.1,19.1,27.9,18.9,26.7,18.7 M28.8,34.9c-0.5,0-1.1,0.1-1.6,0.2c-0.6,0.1-1.3,0.3-1.9,0.5c-0.6,0.2-1.2,0.5-1.8,0.8     c-0.5,0.3-1,0.7-1.4,1.1c-0.2,0.2-0.4,0.5-0.6,0.8c0.8,0,1.6-0.1,2.4-0.3c0.9-0.2,1.7-0.5,2.4-0.9c0.7-0.4,1.4-0.9,2-1.5     C28.5,35.3,28.7,35.1,28.8,34.9 M8.5,14.8c1.5,1.5,2.9,2.9,4.4,4.4c-0.7,0.2-1.3,0.4-1.9,0.6c-1.4,0.5-2.8,1.2-4.1,2     c-1.3,0.8-2.4,1.9-3.4,3c-0.9,1.1-1.7,2.4-2.3,3.7c-0.6,1.3-1,2.8-1.1,4.2c-0.1,1.4-0.1,2.8,0.2,4.2c0.3,1.4,0.8,2.7,1.5,3.9     c0.6,0.9,1.3,1.8,2,2.6l6.7,6.7c2.3,2.3,5.2,3.8,8.4,4.5c1,0.2,2,0.3,3.1,0.4c0.6,0,1.2,0.1,1.8,0.1c0.7,0,1.5,0,2.2,0     c1.7-0.1,3.3-0.4,4.9-0.9c1.7-0.5,3.3-1.2,4.9-2.2l2.3,2.3c0.1,0.1,0.3,0.2,0.5,0.2H51c0.4,0,0.7-0.3,0.7-0.7c0,0,0,0,0,0V27.8     c0-6.5-1.7-11.6-5.3-15.2l-6.7-6.7c-0.2-0.2-0.4-0.4-0.7-0.6c-1-0.9-2.1-1.7-3.3-2.3c-1.2-0.7-2.6-1.2-3.9-1.6     c-1.5-0.4-3-0.8-4.5-1C25.6,0.1,23.9,0,22.2,0c-3.7,0-7.4,0.5-11,1.5C8.8,2.1,6.5,3,4.3,4.2l0,0C4,4.4,3.9,4.8,4,5.1     c1.5,3.2,2.9,6.3,4.4,9.5C8.4,14.7,8.5,14.7,8.5,14.8"></path>
			<path id="Tracciato_23308" class="st2" d="M16.3,37c0-0.2,0-0.4,0-0.7c0-0.4,0.1-0.7,0.2-1.1c0.1-0.4,0.3-0.8,0.6-1.2     c0.5-0.8,1.2-1.4,1.9-1.9c0.8-0.5,1.6-0.9,2.5-1.2c0.9-0.3,1.8-0.5,2.8-0.6c1.1-0.2,2.2-0.2,3.4-0.2c0.9,0,1.8,0,2.7,0.1     c0-0.5,0-1-0.1-1.5c-1.2-0.2-2.3-0.4-3.5-0.5c-1.2-0.1-2.5-0.1-3.7-0.1c-0.6,0-1.3,0.1-1.9,0.2c-0.5,0.1-1.1,0.2-1.6,0.3     c-1,0.2-1.9,0.6-2.7,1.1c-0.4,0.2-0.7,0.5-1.1,0.8c-0.3,0.3-0.6,0.6-0.8,1c-0.2,0.3-0.4,0.7-0.5,1.1c-0.1,0.4-0.1,0.8-0.1,1.3     c0,0.4,0.1,0.8,0.3,1.2c0.1,0.2,0.2,0.4,0.3,0.6c0.1,0.2,0.3,0.4,0.4,0.6C15.7,36.5,16,36.8,16.3,37 M20,38.2     c0.3-0.6,0.6-1.2,1.1-1.7c0.5-0.5,1.1-1,1.7-1.4c1.3-0.7,2.7-1.2,4.2-1.5c0.9-0.2,1.8-0.3,2.7-0.3c0.1-0.3,0.2-0.5,0.3-0.8     c0.1-0.4,0.2-0.7,0.2-1.1c-0.8-0.1-1.7-0.1-2.5-0.1c-1.1,0-2.1,0.1-3.1,0.2c-0.9,0.1-1.7,0.3-2.5,0.6c-0.8,0.3-1.5,0.6-2.1,1.1     c-0.6,0.4-1.1,0.9-1.5,1.5c-0.3,0.5-0.5,1.1-0.6,1.7c0,0.4,0,0.9,0.1,1.3c0.3,0.1,0.5,0.2,0.8,0.2C19.1,38.1,19.5,38.2,20,38.2      M28.8,34.9c-0.5,0-1.1,0.1-1.6,0.2c-0.6,0.1-1.3,0.3-1.9,0.5c-0.6,0.2-1.2,0.5-1.8,0.8c-0.5,0.3-1,0.7-1.4,1.1     c-0.2,0.2-0.4,0.5-0.6,0.8c0.8,0,1.6-0.1,2.4-0.3c0.9-0.2,1.7-0.5,2.4-0.9c0.7-0.4,1.4-0.9,2-1.5C28.5,35.3,28.7,35.1,28.8,34.9      M31.1,27.4L31.1,27.4c-1.1-0.3-2.3-0.4-3.4-0.5c-1.1-0.1-2.2-0.2-3.4-0.2c-1.1,0-2.2,0.1-3.4,0.2c-0.9,0.1-1.9,0.3-2.8,0.6     c-0.9,0.3-1.7,0.7-2.5,1.2c-0.8,0.5-1.4,1.2-1.9,2c-0.5,0.8-0.8,1.7-0.8,2.7c0,1,0.2,1.9,0.7,2.7c0.5,0.8,1.1,1.5,1.9,2.1     c0.8,0.5,1.7,0.9,2.7,1.2c1,0.2,2,0.3,3.1,0.3c1,0,2-0.1,3-0.4c1-0.2,1.9-0.6,2.8-1.1c0.9-0.5,1.7-1.1,2.3-1.8     c0.4-0.4,0.7-0.9,1-1.3c0.4-0.7,0.7-1.5,0.9-2.3c0.4-1.6,0.5-3.2,0.2-4.9C31.6,27.7,31.4,27.4,31.1,27.4"></path>
			<path id="Tracciato_23309" class="st2" d="M28.1,14.4c-0.8-0.2-1.6-0.3-2.5-0.4c-0.9-0.1-1.9-0.1-2.8-0.1     c-2.6,0.1-5.2,0.6-7.6,1.6c-0.9,0.3-1.8,0.8-2.7,1.2c-0.8-0.8-1.5-1.5-2.3-2.3c1-0.5,2.1-1,3.2-1.3c2.3-0.7,4.6-1.1,7-1.1     c1.5,0,3,0.2,4.4,0.6c1.1,0.3,2.2,0.9,3,1.6C27.9,14.2,28,14.3,28.1,14.4 M23.7,15.3c-0.3,0-0.6,0-0.9,0     c-1.8,0.1-3.5,0.3-5.2,0.8c-0.7,0.2-1.3,0.4-2,0.6c-0.7,0.3-1.4,0.6-2.1,1l1,1c0.3-0.1,0.6-0.1,1-0.2c1.5-0.2,3.1-0.4,4.6-0.4     c0,0,0,0,0,0h0.1c2.2-0.7,4.5-1,6.8-1c0.9,0,1.9,0.1,2.8,0.2c-0.1-0.4-0.2-0.7-0.4-1c-0.5-0.3-1.1-0.5-1.7-0.6     c-0.8-0.2-1.5-0.3-2.3-0.4C24.9,15.3,24.4,15.3,23.7,15.3L23.7,15.3z M26.7,18.7c0.1,0,0.2,0,0.4,0c1,0,2.1,0.1,3.1,0.2     c0,0.1,0,0.3,0,0.4C29.1,19.1,27.9,18.9,26.7,18.7 M32.5,42.5v4h11V21.1c0-1.6-0.1-3.1-0.3-4.7c-0.2-1.4-0.6-2.7-1-4     c-0.4-1.2-1-2.3-1.7-3.4c-0.7-1-1.5-1.9-2.4-2.7c-0.9-0.8-1.9-1.5-3-2.1c-1.2-0.6-2.4-1.1-3.6-1.5c-1.4-0.4-2.8-0.7-4.3-0.9     c-1.6-0.2-3.3-0.3-4.9-0.3c-3.6,0-7.1,0.5-10.6,1.4c-2.1,0.6-4.1,1.3-6,2.3c1.3,2.7,2.5,5.4,3.8,8.1c1.2-0.6,2.4-1.1,3.6-1.5     c2.4-0.8,4.9-1.2,7.4-1.2c1.6,0,3.3,0.2,4.8,0.6c1.3,0.4,2.5,1,3.6,1.9c1,0.9,1.7,1.9,2.2,3.1c0.5,1.3,0.7,2.7,0.7,4.1v0     c0,0.4-0.3,0.7-0.7,0.7c-0.1,0-0.1,0-0.2,0c0,0,0,0,0,0c-3.4-0.9-7-1.4-10.6-1.3c-1.5,0-3,0.1-4.4,0.3c-1.5,0.2-2.9,0.6-4.3,1.1     c-1.3,0.5-2.6,1.1-3.8,1.9c-1.2,0.8-2.2,1.7-3.1,2.8c-0.9,1-1.6,2.1-2.1,3.3c-0.5,1.2-0.9,2.5-1,3.8c-0.1,1.3-0.1,2.5,0.2,3.8     C1.9,37.9,2.4,39,3,40.1c0.7,1.1,1.6,2.2,2.6,3c1,0.8,2.1,1.6,3.2,2.1c1.2,0.6,2.4,1,3.7,1.3c1.3,0.3,2.6,0.4,3.9,0.4     c1.1,0.1,2.3,0,3.4,0c2.6-0.2,5.2-1,7.5-2.2c1.5-0.8,2.9-1.7,4.2-2.8l0.1,0c0.3-0.2,0.7-0.2,1,0.1C32.5,42.2,32.5,42.3,32.5,42.5      M43.5,12c0.5,1.4,0.8,2.8,1.1,4.2c0.3,1.6,0.4,3.3,0.4,4.9v25.9c0.6,0.6,1.3,1.3,1.9,1.9V24.4C46.9,19.2,45.7,15.1,43.5,12      M45.9,49.8L44,47.9H33.5l1.9,1.9H45.9z M31.3,47.7c-0.1,0-0.1,0.1-0.2,0.1c-1.3,0.7-2.6,1.3-4,1.7c-1.5,0.4-3,0.7-4.6,0.8     c-0.7,0-1.4,0-2.1,0c-0.6,0-1.1,0-1.7-0.1c-1-0.1-1.9-0.2-2.9-0.4c-0.9-0.2-1.9-0.5-2.7-0.9c-0.7-0.3-1.3-0.6-2-1     c-0.4-0.2-0.7-0.5-1.1-0.7c0.7,0.3,1.4,0.5,2.2,0.6c1.4,0.3,2.7,0.4,4.1,0.5c1.1,0,2.2,0,3.3,0c1.2-0.1,2.4-0.3,3.6-0.6     c1.3-0.3,2.6-0.8,3.8-1.4c1.4-0.7,2.8-1.5,4.1-2.4v3.2C31.1,47.4,31.2,47.6,31.3,47.7L31.3,47.7 M46.9,15.3     c2.2,3.1,3.4,7.2,3.4,12.4v24.4c-0.6-0.6-1.3-1.3-1.9-1.9V24.4C48.4,21.3,47.9,18.3,46.9,15.3 M49.2,53.2l-1.9-1.9H36.9l1.9,1.9     H49.2z M34.7,51.1c-1.3,0.8-2.7,1.4-4.2,1.8c-1.5,0.4-3,0.7-4.6,0.8c-0.7,0-1.4,0-2.1,0c-0.6,0-1.1,0-1.7-0.1     c-1-0.1-1.9-0.2-2.9-0.4c-1.7-0.3-3.2-1-4.7-1.8c-0.4-0.2-0.7-0.5-1.1-0.7c0.7,0.2,1.4,0.4,2.1,0.6c1,0.2,2,0.3,3.1,0.4     c0.6,0,1.2,0.1,1.8,0.1c0.7,0,1.5,0,2.2,0c1.7-0.1,3.3-0.4,4.9-0.9c1.7-0.5,3.3-1.2,4.9-2.2C33.1,49.5,33.9,50.3,34.7,51.1      M51,54.6H38.5c-0.2,0-0.4-0.1-0.5-0.2l-2.3-2.3c-1.5,0.9-3.2,1.6-4.9,2.2c-1.6,0.5-3.2,0.8-4.9,0.9c-0.7,0-1.5,0.1-2.2,0     c-0.6,0-1.2,0-1.8-0.1c-1-0.1-2-0.2-3.1-0.4c-3.2-0.7-6.1-2.2-8.4-4.5l-6.7-6.7c-0.8-0.8-1.5-1.7-2-2.6c-0.7-1.2-1.2-2.5-1.5-3.9     c-0.3-1.4-0.4-2.8-0.2-4.2c0.2-1.5,0.5-2.9,1.1-4.2c0.6-1.3,1.3-2.6,2.3-3.7c1-1.2,2.2-2.2,3.4-3c1.3-0.8,2.6-1.5,4.1-2     c0.6-0.2,1.3-0.4,1.9-0.6c-1.5-1.5-2.9-2.9-4.4-4.4c-0.1-0.1-0.1-0.1-0.1-0.2C6.9,11.4,5.5,8.3,4,5.1C3.9,4.8,4,4.4,4.3,4.2l0,0     C6.5,3,8.8,2.1,11.2,1.5c3.6-1,7.3-1.5,11-1.5c1.7,0,3.4,0.1,5.1,0.3c1.5,0.2,3,0.5,4.5,1c1.4,0.4,2.7,1,3.9,1.6     C36.9,3.6,38,4.4,39,5.2c0.2,0.2,0.5,0.4,0.7,0.6l6.7,6.7c3.5,3.5,5.3,8.6,5.3,15.2v26.2C51.6,54.3,51.3,54.6,51,54.6     C51,54.6,51,54.6,51,54.6"></path>
			<path id="Tracciato_23310" class="st2" d="M88.4,52.6v2h4.7v-17h-4.9V46c0.1,1.2-0.3,2.5-1.1,3.4c-0.7,0.8-1.8,1.2-2.8,1.2     c-2.3,0-3.4-1.4-3.4-4.1v-8.9h-4.9v9.6c-0.2,2.1,0.6,4.2,2,5.7c1.4,1.3,3.4,2,5.3,1.9c1,0,2-0.2,2.9-0.6     C87,53.9,87.8,53.3,88.4,52.6"></path>
			<path id="Tracciato_23311" class="st2" d="M69.2,47.5c-0.6-0.1-1.3-0.2-2-0.2c-0.6,0-1.3,0-1.9,0.1c-0.5,0.1-1,0.3-1.5,0.5     c-0.4,0.2-0.8,0.6-1,1.1c-0.2,0.5-0.1,1,0.1,1.4c0.3,0.4,0.7,0.8,1.1,0.9c0.5,0.2,1.1,0.3,1.7,0.2c0.6,0,1.1-0.2,1.6-0.4     c0.5-0.2,0.9-0.6,1.2-1C69.2,49.3,69.4,48.4,69.2,47.5 M74.2,44.9c0-2.5-0.7-4.4-2.1-5.7c-1.7-1.4-3.9-2-6.1-1.9     c-1.4,0-2.7,0.2-4,0.5c-0.9,0.2-1.7,0.6-2.5,1c0.5,1.2,1.1,2.3,1.6,3.5c0.5-0.3,1-0.5,1.5-0.7c0.9-0.3,1.8-0.4,2.7-0.4     c1.1-0.1,2.1,0.2,2.9,0.9c0.7,0.6,1,1.5,1,2.5c-1.3-0.4-2.6-0.5-4-0.5c-1.1,0-2.3,0.2-3.3,0.5c-1,0.4-2,1-2.7,1.8     c-0.7,0.8-1.1,1.8-1.2,2.8c-0.1,1,0.1,2,0.6,2.9c0.6,0.9,1.3,1.6,2.3,2c0.9,0.4,1.9,0.7,2.9,0.7c2.1,0.1,4.2-0.5,5.7-1.9v1.7h4.6     L74.2,44.9z"></path>
			<rect id="Rettangolo_863" x="95.1" y="30.2" class="st3" width="4.9" height="24.4"></rect>
			<path id="Tracciato_23312" class="st2" d="M128.5,50.8c1.2,0,2.3-0.4,3.1-1.3c0.8-0.9,1.3-2.2,1.2-3.4c0.1-1.3-0.4-2.5-1.2-3.4     c-1.7-1.7-4.5-1.7-6.2,0c-0.8,0.9-1.3,2.2-1.2,3.4c-0.1,1.3,0.4,2.5,1.2,3.4C126.2,50.4,127.4,50.8,128.5,50.8 M124.3,30.2v9.2     c1.3-1.4,3.2-2.2,5.1-2.1c1.5,0,3,0.4,4.3,1.1c1.3,0.7,2.3,1.8,3,3.1c0.8,1.4,1.1,3,1.1,4.6c0,1.6-0.3,3.2-1.1,4.6     c-0.7,1.3-1.8,2.3-3,3.1c-1.3,0.7-2.8,1.1-4.3,1.1c-2,0.1-4-0.7-5.3-2.2v2h-4.7V30.2H124.3z"></path>
			<path id="Tracciato_23313" class="st2" d="M112.6,47.5c-0.6-0.1-1.3-0.2-2-0.2c-0.6,0-1.3,0-1.9,0.1c-0.5,0.1-1,0.3-1.5,0.5     c-0.4,0.2-0.8,0.6-1,1.1c-0.2,0.5-0.1,1,0.1,1.4c0.3,0.4,0.7,0.8,1.1,0.9c0.5,0.2,1.1,0.3,1.7,0.2c0.6,0,1.1-0.2,1.6-0.4     c0.5-0.2,0.9-0.6,1.2-1C112.6,49.3,112.8,48.4,112.6,47.5 M117.5,44.9c0-2.5-0.7-4.4-2.1-5.7c-1.7-1.4-3.9-2-6.1-1.9     c-1.4,0-2.7,0.2-4,0.5c-0.9,0.2-1.7,0.6-2.5,1c0.5,1.2,1.1,2.3,1.6,3.5c0.5-0.3,1-0.5,1.5-0.7c0.9-0.3,1.8-0.4,2.7-0.4     c1.1-0.1,2.1,0.2,2.9,0.9c0.7,0.6,1,1.5,1,2.5c-1.3-0.4-2.6-0.5-4-0.5c-1.1,0-2.3,0.2-3.3,0.5c-1,0.4-2,1-2.7,1.8     c-0.7,0.8-1.1,1.8-1.2,2.8c-0.1,1,0.1,2,0.6,2.9c0.6,0.9,1.3,1.6,2.3,2c0.9,0.4,1.9,0.7,2.9,0.7c2.1,0.1,4.2-0.5,5.7-1.9v1.7h4.6     L117.5,44.9z"></path>
		</g>
	</g>
</g>
</svg>
